<?xml version="1.0" encoding="UTF-8"?>
<svg width="512" height="512" version="1.1" viewBox="0 0 135.47 135.47" xmlns="http://www.w3.org/2000/svg" xmlns:cc="http://creativecommons.org/ns#" xmlns:dc="http://purl.org/dc/elements/1.1/" xmlns:rdf="http://www.w3.org/1999/02/22-rdf-syntax-ns#">
 <metadata>
  <rdf:RDF>
   <cc:Work rdf:about="">
    <dc:format>image/svg+xml</dc:format>
    <dc:type rdf:resource="http://purl.org/dc/dcmitype/StillImage"/>
    <dc:title/>
   </cc:Work>
  </rdf:RDF>
 </metadata>
 <g transform="translate(-3.8932 14.854)">
  <circle cx="71.626" cy="52.879" r="67.733" fill="#ff6b6b" stroke-width=".26458"/>
  <g transform="matrix(.26458 0 0 .26458 3.8932 -14.854)">
   <path d="m186 401c-2.333 0-4.673-0.543-6.827-1.645-5.016-2.564-8.172-7.722-8.172-13.355v-260c0-5.633 3.156-10.791 8.171-13.355s11.044-2.103 15.611 1.195l180 130c3.905 2.82 6.218 7.344 6.218 12.16s-2.313 9.34-6.218 12.16l-180 130c-2.605 1.882-5.686 2.84-8.783 2.84z" fill="#f9f9f9"/>
  </g>
  <path transform="scale(.26458)" d="m257.9 455.26c-65.4-4.1454-122.78-29.747-167.87-74.894-35.853-35.901-60.529-81.859-69.923-130.23-3.942-20.296-4.3192-24.674-4.3215-50.154-0.002279-25.049 0.50654-31.309 3.9716-48.866 13.786-69.851 55.44-130.26 116.09-168.35 31.567-19.826 68.367-32.528 107.77-37.198 10.336-1.2251 43.95-1.2251 54.286 0 72.716 8.6189 134.63 44.128 178.02 102.1 9.5595 12.772 15.05 21.73 23.087 37.67 13.295 26.367 21.161 51.874 25.443 82.5 1.593 11.394 1.8186 49.184 0.36244 60.714-7.5464 59.753-32.181 110.62-73.688 152.16-41.017 41.045-94.414 66.729-152.15 73.182-9.7401 1.0887-33.172 1.8698-41.071 1.369zm-50.3-111.91c4.736-2.4526 181.32-130.15 184.36-133.32 3.0722-3.2036 4.4879-7.6147 3.8761-12.078-0.98455-7.1831 3.3704-3.7562-95.631-75.252-67.854-49.002-92.887-66.709-95.363-67.455-7.0691-2.1275-14.617 1.1941-17.684 7.7824l-1.7425 3.7428-7e-3 133.06c-8e-3 145.93-0.30953 135.68 4.1381 140.42 4.4684 4.7652 12.255 6.1006 18.055 3.0966z" fill="#ff1f3d" stroke-width=".71429"/>
 </g>
</svg>
